<svg width="15" height="14" viewBox="0 0 15 14" fill="none" xmlns="http://www.w3.org/2000/svg">
<path fill-rule="evenodd" clip-rule="evenodd" d="M8.0878 0.921015C7.76319 0.596402 7.23689 0.596402 6.91228 0.921015C6.58787 1.24542 6.58764 1.77132 6.91175 2.09601L10.975 6.16659H1.66671C1.20647 6.16659 0.833374 6.53968 0.833374 6.99992C0.833374 7.46016 1.20647 7.83325 1.66671 7.83325H10.975L6.91175 11.9038C6.58764 12.2285 6.58787 12.7544 6.91228 13.0788C7.23689 13.4034 7.76319 13.4034 8.0878 13.0788L14.1667 6.99992L8.0878 0.921015Z" fill="black" fill-opacity="0.7"/>
<mask id="mask0_2_650" style="mask-type:luminance" maskUnits="userSpaceOnUse" x="0" y="0" width="15" height="14">
<path fill-rule="evenodd" clip-rule="evenodd" d="M8.0878 0.921015C7.76319 0.596402 7.23689 0.596402 6.91228 0.921015C6.58787 1.24542 6.58764 1.77132 6.91175 2.09601L10.975 6.16659H1.66671C1.20647 6.16659 0.833374 6.53968 0.833374 6.99992C0.833374 7.46016 1.20647 7.83325 1.66671 7.83325H10.975L6.91175 11.9038C6.58764 12.2285 6.58787 12.7544 6.91228 13.0788C7.23689 13.4034 7.76319 13.4034 8.0878 13.0788L14.1667 6.99992L8.0878 0.921015Z" fill="white"/>
</mask>
<g mask="url(#mask0_2_650)">
<rect x="-2.5" y="-3" width="20" height="20" fill="#310255"/>
</g>
</svg>
